<?xml version="1.0" encoding="UTF-8" standalone="no"?>
<!-- Created with Inkscape (http://www.inkscape.org/) -->

<svg
   xmlns:dc="http://purl.org/dc/elements/1.1/"
   xmlns:cc="http://creativecommons.org/ns#"
   xmlns:rdf="http://www.w3.org/1999/02/22-rdf-syntax-ns#"
   xmlns:svg="http://www.w3.org/2000/svg"
   xmlns="http://www.w3.org/2000/svg"
   xmlns:sodipodi="http://sodipodi.sourceforge.net/DTD/sodipodi-0.dtd"
   xmlns:inkscape="http://www.inkscape.org/namespaces/inkscape"
   width="350"
   height="150"
   viewBox="0 0 92.604165 39.687501"
   version="1.1"
   id="svg1648"
   inkscape:version="0.92.0 r15299"
   sodipodi:docname="real-logo.svg">
  <defs
     id="defs1642" />
  <sodipodi:namedview
     id="base"
     pagecolor="#ffffff"
     bordercolor="#666666"
     borderopacity="1.0"
     inkscape:pageopacity="0.0"
     inkscape:pageshadow="2"
     inkscape:zoom="3.9571428"
     inkscape:cx="103.54419"
     inkscape:cy="74.999986"
     inkscape:document-units="px"
     inkscape:current-layer="layer1"
     showgrid="false"
     units="px"
     inkscape:window-width="2048"
     inkscape:window-height="1183"
     inkscape:window-x="50"
     inkscape:window-y="105"
     inkscape:window-maximized="0" />
  <metadata
     id="metadata1645">
    <rdf:RDF>
      <cc:Work
         rdf:about="">
        <dc:format>image/svg+xml</dc:format>
        <dc:type
           rdf:resource="http://purl.org/dc/dcmitype/StillImage" />
        <dc:title />
      </cc:Work>
    </rdf:RDF>
  </metadata>
  <g
     inkscape:label="Layer 1"
     inkscape:groupmode="layer"
     id="layer1"
     transform="translate(0,-257.31249)">
    <g
       id="g2246"
       transform="matrix(0.22048329,0,0,-0.22048329,3.6903258,259.7727)">
      <g
         id="g2248">
        <path
           inkscape:connector-curvature="0"
           id="path2250"
           style="fill:#ffffff;fill-opacity:1;fill-rule:nonzero;stroke:none"
           d="m 119.86514,-79.0421 c 0,25.84763 -20.95306,46.8007 -46.8007,46.8007 -25.84763,0 -46.80071,-20.95307 -46.80071,-46.8007 0,-25.84764 20.95308,-46.8007 46.80071,-46.8007 25.84764,0 46.8007,20.95306 46.8007,46.8007 z" />
      </g>
      <g
         transform="translate(73.064,-79.041)"
         id="g2252">
        <g
           id="g2254" />
        <g
           transform="translate(-73.064,79.041)"
           id="g2256" />
      </g>
    </g>
    <g
       id="g2258"
       transform="matrix(0.22048329,0,0,-0.22048329,3.6903258,259.7727)">
      <g
         id="g2260">
        <path
           inkscape:connector-curvature="0"
           id="path2262"
           style="fill:#ff0000;fill-opacity:1;fill-rule:nonzero;stroke:none"
           d="m 100.06477,-25.04141 c 0,14.91206 -12.08827,27.00033 -27.00033,27.00033 -14.91207,0 -27.00034,-12.08827 -27.00034,-27.00033 0,-14.91205 12.08827,-27.00034 27.00034,-27.00034 14.91206,0 27.00033,12.08829 27.00033,27.00034 z" />
      </g>
      <g
         transform="translate(73.064,-25.041)"
         id="g2264">
        <g
           id="g2266" />
        <g
           transform="translate(-73.064,25.041)"
           id="g2268" />
      </g>
    </g>
    <g
       id="g2270"
       transform="matrix(0.22048329,0,0,-0.22048329,3.6903258,259.7727)">
      <g
         id="g2272">
        <path
           inkscape:connector-curvature="0"
           id="path2274"
           style="fill:#ff0000;fill-opacity:1;fill-rule:nonzero;stroke:none"
           d="m 100.06477,-133.0428 c 0,14.91206 -12.08827,27.00035 -27.00033,27.00035 -14.91207,0 -27.00034,-12.08829 -27.00034,-27.00035 0,-14.91206 12.08827,-27.00034 27.00034,-27.00034 14.91206,0 27.00033,12.08828 27.00033,27.00034 z" />
      </g>
      <g
         transform="translate(73.064,-133.041)"
         id="g2276">
        <g
           id="g2278" />
        <g
           transform="translate(-73.064,133.041)"
           id="g2280" />
      </g>
    </g>
    <g
       id="g2282"
       transform="matrix(0.22048329,0,0,-0.22048329,3.6903258,259.7727)">
      <g
         id="g2284">
        <path
           inkscape:connector-curvature="0"
           id="path2286"
           style="fill:#0000ff;fill-opacity:1;fill-rule:nonzero;stroke:none"
           d="m 146.86494,-52.04176 c 0,14.91206 -12.08828,27.00033 -27.00034,27.00033 -14.91207,0 -27.00034,-12.08827 -27.00034,-27.00033 0,-14.91207 12.08827,-27.00034 27.00034,-27.00034 14.91206,0 27.00034,12.08827 27.00034,27.00034 z" />
      </g>
      <g
         transform="translate(119.864,-52.041)"
         id="g2288">
        <g
           id="g2290" />
        <g
           transform="translate(-119.864,52.041)"
           id="g2292" />
      </g>
    </g>
    <g
       id="g2294"
       transform="matrix(0.22048329,0,0,-0.22048329,3.6903258,259.7727)">
      <g
         id="g2296">
        <path
           inkscape:connector-curvature="0"
           id="path2298"
           style="fill:#0000ff;fill-opacity:1;fill-rule:nonzero;stroke:none"
           d="m 53.26462,-106.04243 c 0,14.91204 -12.08827,27.00033 -27.00034,27.00033 -14.91206,0 -27.00032,-12.08829 -27.00032,-27.00033 0,-14.91207 12.08826,-27.00036 27.00032,-27.00036 14.91207,0 27.00034,12.08829 27.00034,27.00036 z" />
      </g>
      <g
         transform="translate(26.264,-106.041)"
         id="g2300">
        <g
           id="g2302" />
        <g
           transform="translate(-26.264,106.041)"
           id="g2304" />
      </g>
    </g>
    <g
       id="g2306"
       transform="matrix(0.22048329,0,0,-0.22048329,3.6903258,259.7727)">
      <g
         id="g2308">
        <path
           inkscape:connector-curvature="0"
           id="path2310"
           style="fill:#00ff00;fill-opacity:1;fill-rule:nonzero;stroke:none"
           d="m 146.86494,-106.04243 c 0,14.91204 -12.08828,27.00033 -27.00034,27.00033 -14.91207,0 -27.00034,-12.08829 -27.00034,-27.00033 0,-14.91207 12.08827,-27.00036 27.00034,-27.00036 14.91206,0 27.00034,12.08829 27.00034,27.00036 z" />
      </g>
      <g
         transform="translate(119.864,-106.041)"
         id="g2312">
        <g
           id="g2314" />
        <g
           transform="translate(-119.864,106.041)"
           id="g2316" />
      </g>
    </g>
    <g
       id="g2318"
       transform="matrix(0.22048329,0,0,-0.22048329,3.6903258,259.7727)">
      <g
         id="g2320">
        <path
           inkscape:connector-curvature="0"
           id="path2322"
           style="fill:#00ff00;fill-opacity:1;fill-rule:nonzero;stroke:none"
           d="m 53.26462,-52.04176 c 0,14.91206 -12.08827,27.00033 -27.00034,27.00033 -14.91206,0 -27.00032,-12.08827 -27.00032,-27.00033 0,-14.91207 12.08826,-27.00034 27.00032,-27.00034 14.91207,0 27.00034,12.08827 27.00034,27.00034 z" />
      </g>
      <g
         transform="translate(26.264,-52.041)"
         id="g2324">
        <g
           id="g2326" />
        <g
           transform="translate(-26.264,52.041)"
           id="g2328" />
      </g>
    </g>
    <g
       id="g2330"
       transform="matrix(0.22048329,0,0,-0.22048329,3.6903258,259.7727)">
      <g
         id="g2332">
        <path
           inkscape:connector-curvature="0"
           id="path2334"
           style="fill:#ffffff;fill-opacity:1;fill-rule:nonzero;stroke:none"
           d="m 10.0642,-57.4416 h 32.40018 v 10.7997 H 10.0642 Z" />
      </g>
      <g
         transform="translate(26.264,-52.041)"
         id="g2336">
        <g
           id="g2338" />
        <g
           transform="translate(-26.264,52.041)"
           id="g2340" />
      </g>
    </g>
    <g
       id="g2342"
       transform="matrix(0.22048329,0,0,-0.22048329,3.6903258,259.7727)">
      <g
         id="g2344">
        <path
           inkscape:connector-curvature="0"
           id="path2346"
           style="fill:#ffffff;fill-opacity:1;fill-rule:nonzero;stroke:none"
           d="m 103.6645,-111.44229 h 32.40018 v 10.7997 H 103.6645 Z" />
      </g>
      <g
         transform="translate(119.863,-106.041)"
         id="g2348">
        <g
           id="g2350" />
        <g
           transform="translate(-119.863,106.041)"
           id="g2352" />
      </g>
    </g>
    <g
       id="g2354"
       transform="matrix(0.22048329,0,0,-0.22048329,3.6903258,259.7727)">
      <g
         id="g2356">
        <path
           inkscape:connector-curvature="0"
           id="path2358"
           style="fill:#ffffff;fill-opacity:1;fill-rule:nonzero;stroke:none"
           d="m 103.6645,-57.4416 h 32.40018 v 10.7997 H 103.6645 Z" />
      </g>
      <g
         transform="translate(119.863,-52.041)"
         id="g2360">
        <g
           id="g2362" />
        <g
           transform="translate(-119.863,52.041)"
           id="g2364" />
      </g>
    </g>
    <g
       id="g2366"
       transform="matrix(0.22048329,0,0,-0.22048329,3.6903258,259.7727)">
      <g
         id="g2368">
        <path
           inkscape:connector-curvature="0"
           id="path2370"
           style="fill:#ffffff;fill-opacity:1;fill-rule:nonzero;stroke:none"
           d="m 10.0642,-111.44229 h 32.40018 v 10.7997 H 10.0642 Z" />
      </g>
      <g
         transform="translate(26.264,-106.041)"
         id="g2372">
        <g
           id="g2374" />
        <g
           transform="translate(-26.264,106.041)"
           id="g2376" />
      </g>
    </g>
    <g
       id="g2378"
       transform="matrix(0.22048329,0,0,-0.22048329,3.6903258,259.7727)">
      <g
         id="g2380">
        <path
           inkscape:connector-curvature="0"
           id="path2382"
           style="fill:#ffffff;fill-opacity:1;fill-rule:nonzero;stroke:none"
           d="m 56.86435,-30.44125 h 32.40018 v 10.7997 H 56.86435 Z" />
      </g>
      <g
         transform="translate(73.064,-25.041)"
         id="g2384">
        <g
           id="g2386" />
        <g
           transform="translate(-73.064,25.041)"
           id="g2388" />
      </g>
    </g>
    <g
       id="g2390"
       transform="matrix(0.22048329,0,0,-0.22048329,3.6903258,259.7727)">
      <g
         id="g2392">
        <path
           inkscape:connector-curvature="0"
           id="path2394"
           style="fill:#ffffff;fill-opacity:1;fill-rule:nonzero;stroke:none"
           d="m 56.86435,-138.44264 h 32.40018 v 10.7997 H 56.86435 Z" />
      </g>
      <g
         transform="translate(73.064,-133.041)"
         id="g2396">
        <g
           id="g2398" />
        <g
           transform="translate(-73.064,133.041)"
           id="g2400" />
      </g>
    </g>
    <g
       id="g2402"
       transform="matrix(0.22048329,0,0,-0.22048329,3.6903258,259.7727)">
      <g
         id="g2404">
        <path
           inkscape:connector-curvature="0"
           id="path2406"
           style="fill:#ffffff;fill-opacity:1;fill-rule:nonzero;stroke:none"
           d="m 20.86444,-68.24185 h 10.7997 v 32.40018 h -10.7997 z" />
      </g>
      <g
         transform="translate(26.264,-52.041)"
         id="g2408">
        <g
           id="g2410" />
        <g
           transform="translate(-26.264,52.041)"
           id="g2412" />
      </g>
    </g>
    <g
       id="g2414"
       transform="matrix(0.22048329,0,0,-0.22048329,3.6903258,259.7727)">
      <g
         id="g2416">
        <path
           inkscape:connector-curvature="0"
           id="path2418"
           style="fill:#ffffff;fill-opacity:1;fill-rule:nonzero;stroke:none"
           d="m 114.46475,-68.24185 h 10.7997 v 32.40018 h -10.7997 z" />
      </g>
      <g
         transform="translate(119.863,-52.041)"
         id="g2420">
        <g
           id="g2422" />
        <g
           transform="translate(-119.863,52.041)"
           id="g2424" />
      </g>
    </g>
    <g
       id="g2426"
       transform="matrix(0.22048329,0,0,-0.22048329,3.6903258,259.7727)">
      <g
         id="g2428">
        <path
           inkscape:connector-curvature="0"
           id="path2430"
           style="fill:#ffffff;fill-opacity:1;fill-rule:nonzero;stroke:none"
           d="m 67.6646,-149.24289 h 10.7997 v 32.40018 H 67.6646 Z" />
      </g>
      <g
         transform="translate(73.064,-133.041)"
         id="g2432">
        <g
           id="g2434" />
        <g
           transform="translate(-73.064,133.041)"
           id="g2436" />
      </g>
    </g>
    <text
       xml:space="preserve"
       style="font-style:normal;font-variant:normal;font-weight:normal;font-stretch:normal;font-size:12.69999981px;line-height:6.61458302px;font-family:'Noto Serif';-inkscape-font-specification:'Noto Serif, Normal';text-align:center;letter-spacing:0px;word-spacing:0px;writing-mode:lr-tb;text-anchor:middle;fill:#ffffff;fill-opacity:1;stroke:none;stroke-width:0.26458332px;stroke-linecap:butt;stroke-linejoin:miter;stroke-opacity:1"
       x="64.839172"
       y="276.0932"
       id="text2588"><tspan
         sodipodi:role="line"
         id="tspan2586"
         x="64.839172"
         y="276.0932"
         style="font-size:12.69999981px;fill:#ffffff;fill-opacity:1;stroke-width:0.26458332px">Absolute</tspan><tspan
         sodipodi:role="line"
         x="64.839172"
         y="282.70779"
         style="font-size:12.69999981px;fill:#ffffff;fill-opacity:1;stroke-width:0.26458332px"
         id="tspan2590" /><tspan
         sodipodi:role="line"
         x="64.839172"
         y="289.32236"
         style="font-size:12.69999981px;fill:#ffffff;fill-opacity:1;stroke-width:0.26458332px"
         id="tspan2592">Zero</tspan></text>
  </g>
</svg>
